<?xml version="1.0" encoding="utf-8"?>
<!-- Generator: Adobe Illustrator 24.1.1, SVG Export Plug-In . SVG Version: 6.00 Build 0)  -->
<svg version="1.1" id="Шар_1" xmlns="http://www.w3.org/2000/svg" xmlns:xlink="http://www.w3.org/1999/xlink" x="0px" y="0px"
	 viewBox="0 0 312.46 336.71" style="enable-background:new 0 0 312.46 336.71;" xml:space="preserve">
<style type="text/css">
	.st0{fill:url(#Path_1_1_);}
	.st1{fill:url(#Path_2_1_);}
	.st2{fill:url(#Path_3_1_);}
	.st3{fill:url(#Path_4_1_);}
</style>
<g id="cash" transform="translate(0)">
	
		<linearGradient id="Path_1_1_" gradientUnits="userSpaceOnUse" x1="13.1829" y1="446.1159" x2="13.1629" y2="448.8589" gradientTransform="matrix(306.8574 0 0 -123.9944 -3892.4382 55668.9609)">
		<stop  offset="0" style="stop-color:#3C91E6"/>
		<stop  offset="1" style="stop-color:#AF2BBF"/>
	</linearGradient>
	<path id="Path_1" class="st0" d="M292.52,215.02c-1.81-0.9-3.73-1.53-5.72-1.89c-5.26-1.02-10.72-0.12-15.37,2.56l-62.63,36.14
		c-2.54-6.81-8.2-11.99-15.21-13.92l-67.63-18.09c-2.36-0.63-4.8-0.95-7.25-0.95H83.03c-5.08,0-10.06,1.38-14.42,3.98l-14.29,8.56
		v-18.16H-1.8v123.46h56.12v-19.69l16.47,6.5c3.28,1.3,6.78,1.97,10.31,1.97h90.29c5.22,0,10.33-1.45,14.77-4.2l107.74-66.71
		c6.94-4.01,11.19-11.43,11.15-19.44c0-3.94-1.03-7.81-2.99-11.22C299.85,220.05,296.53,216.95,292.52,215.02L292.52,215.02z
		 M43.09,325.49H9.42V224.48h33.67V325.49z M288.13,244.96l-107.88,66.78c-2.66,1.65-5.73,2.53-8.86,2.53H81.1
		c-2.11,0-4.21-0.4-6.17-1.18l-20.61-8.14v-60.46l20.06-12.01c2.61-1.56,5.6-2.39,8.65-2.39h35.68c1.47-0.01,2.93,0.18,4.35,0.56
		l67.62,18.1c4.51,1.23,7.8,5.11,8.28,9.76c0.04,0.64,0.04,1.29,0,1.93c-0.07,0.7-0.18,1.39-0.33,2.08c-1.3,4.85-5.68,8.24-10.7,8.3
		c-0.84-0.05-4.13-0.73-6.51-1.27l-58.31-15.6l-2.9,10.84l58.5,15.65c2.97,0.79,6,1.33,9.06,1.6c10.16-0.01,19.06-6.84,21.7-16.65
		c0.1-0.34,0.1-0.7,0.17-1.05l67.41-38.95c2.33-1.33,5.05-1.77,7.68-1.25c0.99,0.18,1.95,0.5,2.85,0.94
		c1.98,0.95,3.62,2.47,4.72,4.37c0.99,1.72,1.52,3.68,1.53,5.67c0.01,4.07-2.17,7.83-5.72,9.82V244.96z"/>
	<g id="Group_2" transform="translate(89.79)">
		
			<linearGradient id="Path_2_1_" gradientUnits="userSpaceOnUse" x1="-75.2844" y1="446.277" x2="-75.3044" y2="449.02" gradientTransform="matrix(78.566 0 0 -134.684 6025.5889 60303.7305)">
			<stop  offset="0" style="stop-color:#3C91E6"/>
			<stop  offset="1" style="stop-color:#AF2BBF"/>
		</linearGradient>
		<path id="Path_2" class="st1" d="M110.43,151.52c-15.21,0-28.06-7.71-28.06-16.84H71.15c0,14.37,14.4,25.86,33.67,27.76v17.14
			h11.22v-17.14c19.27-1.9,33.67-13.39,33.67-27.76c0-15.71-17.26-28.06-39.28-28.06c-15.21,0-28.06-7.71-28.06-16.84
			s12.85-16.84,28.06-16.84s28.06,7.71,28.06,16.84h11.22c0-14.37-14.4-25.86-33.67-27.75V44.9h-11.22v17.14
			c-19.27,1.9-33.67,13.39-33.67,27.75c0,15.71,17.26,28.06,39.28,28.06c15.21,0,28.06,7.71,28.06,16.84
			S125.64,151.52,110.43,151.52z"/>
		
			<linearGradient id="Path_3_1_" gradientUnits="userSpaceOnUse" x1="-76.4395" y1="447.0244" x2="-76.4594" y2="449.7675" gradientTransform="matrix(224.474 0 0 -224.474 17270.1367 100599.4688)">
			<stop  offset="0" style="stop-color:#3C91E6"/>
			<stop  offset="1" style="stop-color:#AF2BBF"/>
		</linearGradient>
		<path id="Path_3" class="st2" d="M110.43,224.47c61.99,0,112.24-50.25,112.24-112.24S172.42,0,110.43,0S-1.8,50.25-1.8,112.24l0,0
			C-1.8,174.22,48.44,224.47,110.43,224.47C110.43,224.47,110.43,224.47,110.43,224.47z M110.43,11.22
			c55.79,0,101.01,45.23,101.01,101.01s-45.23,101.01-101.01,101.01c-55.79,0-101.01-45.22-101.01-101.01
			C9.42,56.45,54.65,11.23,110.43,11.22L110.43,11.22z"/>
		
			<linearGradient id="Path_4_1_" gradientUnits="userSpaceOnUse" x1="-76.284" y1="446.7442" x2="-76.304" y2="449.4872" gradientTransform="matrix(179.58 0 0 -179.58 13810.335 80452.0547)">
			<stop  offset="0" style="stop-color:#3C91E6"/>
			<stop  offset="1" style="stop-color:#AF2BBF"/>
		</linearGradient>
		<path id="Path_4" class="st3" d="M110.43,202.03c49.59,0,89.79-40.2,89.79-89.79c0-49.59-40.2-89.79-89.79-89.79
			s-89.79,40.2-89.79,89.79c0,0,0,0,0,0C20.64,161.83,60.84,202.03,110.43,202.03z M110.43,33.67c43.39,0,78.57,35.18,78.57,78.57
			s-35.18,78.57-78.57,78.57s-78.57-35.18-78.57-78.57l0,0C31.87,68.85,67.04,33.67,110.43,33.67L110.43,33.67z"/>
	</g>
</g>
</svg>
