<svg xmlns="http://www.w3.org/2000/svg" width="27.91" height="27.91" viewBox="0 0 27.91 27.91">
	<g id="instagram" transform="translate(0.001)">
		<path id="Path_45" data-name="Path 45" d="M20.354,0H7.554A7.563,7.563,0,0,0,0,7.555v12.8A7.563,7.563,0,0,0,7.554,27.91h12.8a7.563,7.563,0,0,0,7.555-7.555V7.555A7.563,7.563,0,0,0,20.354,0Zm5.919,20.355a5.925,5.925,0,0,1-5.919,5.919H7.554a5.925,5.925,0,0,1-5.919-5.919V7.555A5.925,5.925,0,0,1,7.554,1.636h12.8a5.925,5.925,0,0,1,5.919,5.919Zm0,0" transform="translate(0 0)"/>
		<path id="Path_46" data-name="Path 46" d="M123.635,116a7.631,7.631,0,1,0,7.631,7.631A7.64,7.64,0,0,0,123.635,116Zm0,13.627a6,6,0,1,1,6-6A6,6,0,0,1,123.635,129.631Zm0,0" transform="translate(-109.681 -109.68)"/>
		<path id="Path_47" data-name="Path 47" d="M360.232,66.285a2.255,2.255,0,1,0,2.255,2.255A2.258,2.258,0,0,0,360.232,66.285Zm0,2.874a.619.619,0,1,1,.619-.619A.62.62,0,0,1,360.232,69.159Zm0,0" transform="translate(-338.464 -62.672)"/>
	</g>
</svg>
