<svg xmlns="http://www.w3.org/2000/svg" width="19.624" height="27.91" viewBox="0 0 19.624 27.91">
	<g id="pin" transform="translate(-76)">
		<g id="Group_4" data-name="Group 4" transform="translate(76)">
			<g id="Group_3" data-name="Group 3">
				<path id="Path_48" data-name="Path 48" d="M85.812,0a9.814,9.814,0,0,0-8.347,14.972l7.789,12.552a.818.818,0,0,0,.695.387h.006a.818.818,0,0,0,.7-.4l7.59-12.673A9.814,9.814,0,0,0,85.812,0Zm7.025,14-6.9,11.522L78.855,14.11A8.182,8.182,0,1,1,92.837,14Z" transform="translate(-76)"/>
			</g>
		</g>
		<g id="Group_6" data-name="Group 6" transform="translate(80.906 4.906)">
			<g id="Group_5" data-name="Group 5">
				<path id="Path_49" data-name="Path 49" d="M170.906,90a4.906,4.906,0,1,0,4.906,4.906A4.912,4.912,0,0,0,170.906,90Zm0,8.188a3.282,3.282,0,1,1,3.276-3.282A3.284,3.284,0,0,1,170.906,98.188Z" transform="translate(-166 -90)"/>
			</g>
		</g>
	</g>
</svg>
