<svg xmlns="http://www.w3.org/2000/svg" xmlns:xlink="http://www.w3.org/1999/xlink" width="324.075" height="108.279" viewBox="0 0 324.075 108.279">
	<defs>
		<filter id="Crazy_Diamond_Barber_Shop" x="111.075" y="14.965" width="213" height="81" filterUnits="userSpaceOnUse">
			<feOffset dy="3" input="SourceAlpha"/>
			<feGaussianBlur stdDeviation="3" result="blur"/>
			<feFlood flood-color="#09192a" flood-opacity="0.161"/>
			<feComposite operator="in" in2="blur"/>
			<feComposite in="SourceGraphic"/>
		</filter>
	</defs>
	<g id="Logo" transform="translate(-123 -17.159)">
		<path id="diamond" d="M48.175,39.573a1.836,1.836,0,1,1,0,3.672H47.3a1.836,1.836,0,1,1,0-3.672Zm67.6,26.145a1.836,1.836,0,0,1-.2,2.241l-5.29,5.678a1.836,1.836,0,1,1-2.686-2.5l2.413-2.589H83.2L69.8,111.7l10.709-11.491a1.836,1.836,0,1,1,2.687,2.5L67,120.09a1.833,1.833,0,0,1-2.686,0L15.748,67.958a1.836,1.836,0,0,1-.2-2.241L20.868,57.4a8.8,8.8,0,0,0-7.511-4.232,1.836,1.836,0,1,1,0-3.672,8.813,8.813,0,0,0,8.805-8.805,1.836,1.836,0,1,1,3.672,0,8.76,8.76,0,0,0,2.09,5.682l3.81-5.955a1.837,1.837,0,0,1,1.546-.847h7.594a1.836,1.836,0,1,1,0,3.672h-4.24L49.47,63.3,62.307,43.245H55.869a1.836,1.836,0,0,1,0-3.672H98.044a1.837,1.837,0,0,1,1.546.847Zm-62.948-.846H78.5L65.661,44.819ZM19.87,51.338A12.573,12.573,0,0,1,24,55.469a12.566,12.566,0,0,1,4.133-4.132c-.271-.167-.525-.359-.78-.543-.018-.012-.039-.015-.057-.026a1.887,1.887,0,0,1-.151-.12A12.549,12.549,0,0,1,24,47.205a12.566,12.566,0,0,1-4.133,4.127ZM19.408,66.5,61.526,111.71,49.648,73.467a1.836,1.836,0,0,1,3.5-1.089L65.657,112.65l13.7-44.106H28.285a1.836,1.836,0,1,1,0-3.672H46.121L33.281,44.819l-2.438,3.809a8.729,8.729,0,0,0,3.8.873,1.836,1.836,0,1,1,0,3.672,8.813,8.813,0,0,0-8.805,8.8,1.831,1.831,0,0,1-3.653.187ZM95.43,48.9,85.205,64.872h25.67L97.035,43.245H69.015L81.851,63.3,92.334,46.917a1.838,1.838,0,0,1,3.1,1.983Zm10.089,29.855.671-.72a1.836,1.836,0,1,0-2.687-2.5l-.67.721a1.835,1.835,0,0,0,2.686,2.5ZM65.661,29.516A1.835,1.835,0,0,0,67.5,27.68V14.232a1.836,1.836,0,0,0-3.672,0V27.68a1.835,1.835,0,0,0,1.836,1.836ZM51.329,31.763a1.835,1.835,0,1,0,2.6-2.6l-9.508-9.509a1.836,1.836,0,0,0-2.6,2.6Zm27.365.538a1.829,1.829,0,0,0,1.3-.538L89.5,22.254a1.836,1.836,0,1,0-2.6-2.6L77.4,29.168a1.836,1.836,0,0,0,1.3,3.134Zm30.07,61.939a1.835,1.835,0,0,1-1.836,1.836,12.3,12.3,0,0,0-12.281,12.281,1.836,1.836,0,1,1-3.672,0A12.3,12.3,0,0,0,78.694,96.076a1.836,1.836,0,1,1,0-3.672A12.3,12.3,0,0,0,90.975,80.129a1.836,1.836,0,0,1,3.672,0,12.191,12.191,0,0,0,.729,4.127l3.4-3.65a1.836,1.836,0,0,1,2.687,2.5l-4.225,4.535a12.255,12.255,0,0,0,9.691,4.764,1.836,1.836,0,0,1,1.836,1.831Zm-9.262,0a16.052,16.052,0,0,1-6.108-5.681,1.83,1.83,0,0,1-.2-.342c-.131-.221-.265-.44-.386-.668A16.052,16.052,0,0,1,86.12,94.24a16.068,16.068,0,0,1,6.687,6.691A16.061,16.061,0,0,1,99.5,94.24Zm20.277-63.775a1.836,1.836,0,0,1-1.836,1.836,6.893,6.893,0,0,0-6.885,6.887,1.836,1.836,0,1,1-3.672,0A6.9,6.9,0,0,0,100.5,32.3a1.836,1.836,0,1,1,0-3.672,6.9,6.9,0,0,0,6.888-6.887,1.836,1.836,0,1,1,3.672,0,6.893,6.893,0,0,0,6.885,6.887A1.836,1.836,0,0,1,119.779,30.465Zm-7.779,0a10.617,10.617,0,0,1-2.778-2.778,10.636,10.636,0,0,1-2.776,2.778,10.641,10.641,0,0,1,2.779,2.779A10.62,10.62,0,0,1,112,30.465Z" transform="translate(111.479 4.763)"/>
		<g transform="matrix(1, 0, 0, 1, 123, 17.16)" filter="url(#Crazy_Diamond_Barber_Shop)">
			<text id="Crazy_Diamond_Barber_Shop-2" data-name="Crazy Diamond
Barber Shop" transform="translate(120.07 48.97)" font-size="26" font-weight="1000" font-family="SegoeUIBlack, Segoe UI"><tspan x="0" y="0">Crazy Diamond</tspan><tspan x="0" y="28">Barber Shop</tspan></text>
		</g>
	</g>
</svg>
