<svg xmlns="http://www.w3.org/2000/svg" xmlns:xlink="http://www.w3.org/1999/xlink" width="236" height="76.65" viewBox="0 0 236 76.65">
	<defs>
		<linearGradient id="linear-gradient" x1="0.914" y1="0.747" x2="0.257" y2="0.09" gradientUnits="objectBoundingBox">
			<stop offset="0" stop-color="#3c91e6"/>
			<stop offset="1" stop-color="#af2bbf"/>
		</linearGradient>
		<filter id="Crazy_Diamond_Barber_Shop" x="76" y="8.841" width="160" height="64" filterUnits="userSpaceOnUse">
			<feOffset dy="3" input="SourceAlpha"/>
			<feGaussianBlur stdDeviation="3" result="blur"/>
			<feFlood flood-color="#09192a" flood-opacity="0.161"/>
			<feComposite operator="in" in2="blur"/>
			<feComposite in="SourceGraphic"/>
		</filter>
	</defs>
	<g id="Logo" transform="translate(-123 -17.159)">
		<path id="diamond" d="M37.468,31.634a1.3,1.3,0,1,1,0,2.6h-.619a1.3,1.3,0,1,1,0-2.6ZM85.323,50.142a1.3,1.3,0,0,1-.144,1.586l-3.745,4.019a1.3,1.3,0,1,1-1.9-1.772l1.708-1.833H62.264L52.775,82.7l7.58-8.135a1.3,1.3,0,0,1,1.9,1.772L50.8,88.632a1.3,1.3,0,0,1-1.9,0l-34.382-36.9a1.3,1.3,0,0,1-.144-1.586l3.768-5.887a6.23,6.23,0,0,0-5.317-3,1.3,1.3,0,1,1,0-2.6,6.238,6.238,0,0,0,6.233-6.233,1.3,1.3,0,1,1,2.6,0,6.2,6.2,0,0,0,1.479,4.022l2.7-4.215a1.3,1.3,0,0,1,1.095-.6H32.3a1.3,1.3,0,1,1,0,2.6h-3l9.086,14.2,9.087-14.2H42.915a1.3,1.3,0,0,1,0-2.6H72.77a1.3,1.3,0,0,1,1.095.6Zm-44.561-.6h18.17l-9.086-14.2ZM17.431,39.963a8.9,8.9,0,0,1,2.925,2.925,8.9,8.9,0,0,1,2.925-2.925c-.192-.118-.371-.254-.552-.385-.013-.008-.027-.01-.04-.019a1.336,1.336,0,0,1-.107-.085,8.883,8.883,0,0,1-2.228-2.437,8.9,8.9,0,0,1-2.925,2.922ZM17.1,50.7l29.815,32L38.511,55.628a1.3,1.3,0,0,1,2.479-.771l8.853,28.508,9.7-31.222H23.388a1.3,1.3,0,1,1,0-2.6H36.014l-9.089-14.2-1.726,2.7a6.179,6.179,0,0,0,2.688.618,1.3,1.3,0,1,1,0,2.6,6.238,6.238,0,0,0-6.233,6.233,1.3,1.3,0,0,1-2.586.132ZM70.919,38.237,63.681,49.543H81.853l-9.8-15.31H52.22l9.087,14.2,7.421-11.6a1.3,1.3,0,0,1,2.192,1.4Zm7.142,21.134.475-.509a1.3,1.3,0,1,0-1.9-1.772l-.475.51a1.3,1.3,0,0,0,1.9,1.771ZM49.846,24.515a1.3,1.3,0,0,0,1.3-1.3V13.7a1.3,1.3,0,1,0-2.6,0v9.52a1.3,1.3,0,0,0,1.3,1.3ZM39.7,26.106a1.3,1.3,0,1,0,1.837-1.837l-6.731-6.732a1.3,1.3,0,0,0-1.839,1.837Zm19.371.381a1.3,1.3,0,0,0,.919-.381l6.732-6.732a1.3,1.3,0,1,0-1.838-1.838l-6.731,6.732a1.3,1.3,0,0,0,.919,2.218ZM80.359,70.333a1.3,1.3,0,0,1-1.3,1.3,8.7,8.7,0,0,0-8.694,8.694,1.3,1.3,0,1,1-2.6,0,8.7,8.7,0,0,0-8.694-8.694,1.3,1.3,0,1,1,0-2.6,8.7,8.7,0,0,0,8.694-8.689,1.3,1.3,0,0,1,2.6,0,8.63,8.63,0,0,0,.516,2.922l2.406-2.584a1.3,1.3,0,0,1,1.9,1.772L72.2,65.664a8.675,8.675,0,0,0,6.86,3.372,1.3,1.3,0,0,1,1.3,1.3Zm-6.556,0a11.363,11.363,0,0,1-4.324-4.022,1.3,1.3,0,0,1-.14-.242c-.093-.157-.188-.311-.273-.473a11.363,11.363,0,0,1-4.737,4.737,11.374,11.374,0,0,1,4.734,4.737,11.37,11.37,0,0,1,4.74-4.737ZM88.156,25.187a1.3,1.3,0,0,1-1.3,1.3,4.879,4.879,0,0,0-4.874,4.875,1.3,1.3,0,1,1-2.6,0,4.881,4.881,0,0,0-4.876-4.875,1.3,1.3,0,0,1,0-2.6,4.881,4.881,0,0,0,4.876-4.875,1.3,1.3,0,1,1,2.6,0,4.879,4.879,0,0,0,4.874,4.875A1.3,1.3,0,0,1,88.156,25.187Zm-5.507,0a7.515,7.515,0,0,1-1.967-1.967,7.529,7.529,0,0,1-1.965,1.967,7.532,7.532,0,0,1,1.967,1.967A7.518,7.518,0,0,1,82.649,25.187Z" transform="translate(111.479 4.763)" fill="url(#linear-gradient)"/>
		<g transform="matrix(1, 0, 0, 1, 123, 17.16)" filter="url(#Crazy_Diamond_Barber_Shop)">
			<text id="Crazy_Diamond_Barber_Shop-2" data-name="Crazy Diamond
Barber Shop" transform="translate(85 35.84)" font-weight="1000" fill="#3c91e6" font-size="19" font-family="SegoeUIBlack, Segoe UI"><tspan x="0" y="0">Crazy Diamond</tspan><tspan x="0" y="20">Barber Shop</tspan></text>
		</g>
	</g>
</svg>
