<?xml version="1.0" encoding="utf-8"?>
<!-- Generator: Adobe Illustrator 24.1.1, SVG Export Plug-In . SVG Version: 6.00 Build 0)  -->
<svg version="1.1" id="Шар_1" xmlns="http://www.w3.org/2000/svg" xmlns:xlink="http://www.w3.org/1999/xlink" x="0px" y="0px"
	 viewBox="0 0 27.72 24.64" style="enable-background:new 0 0 27.72 24.64;" xml:space="preserve">
<style type="text/css">
	.st0{fill:#3C91E6;}
</style>
<path id="Path_1" class="st0" d="M26.18,0H1.54C0.69,0,0,0.69,0,1.54v3.08c0,0.85,0.69,1.54,1.54,1.54h24.65
	c0.85,0,1.54-0.69,1.54-1.54V1.54C27.72,0.69,27.03,0,26.18,0z"/>
<path id="Path_2" class="st0" d="M26.18,9.24H1.54C0.69,9.24,0,9.93,0,10.78v3.08c0,0.85,0.69,1.54,1.54,1.54h24.65
	c0.85,0,1.54-0.69,1.54-1.54v-3.08C27.72,9.93,27.03,9.24,26.18,9.24z"/>
<path id="Path_3" class="st0" d="M26.18,18.48H1.54C0.69,18.48,0,19.17,0,20.02v3.08c0,0.85,0.69,1.54,1.54,1.54h24.65
	c0.85,0,1.54-0.69,1.54-1.54v-3.08C27.72,19.17,27.03,18.48,26.18,18.48z"/>
</svg>
